<svg width="27" height="28" viewBox="0 0 27 28" fill="none" xmlns="http://www.w3.org/2000/svg">
<path fill-rule="evenodd" clip-rule="evenodd" d="M-0.0078125 14.0791C-0.0078125 20.7181 4.82055 26.2171 11.1913 27.3571L11.2716 27.2914C11.2678 27.2907 11.2641 27.29 11.2603 27.2893V17.8338H7.90727V14.0784H11.2603V11.1278C11.2603 7.77473 13.4062 5.89703 16.491 5.89703C17.4299 5.89703 18.5028 6.03115 19.4417 6.16527V9.58536H17.6981C16.0887 9.58536 15.6863 10.3901 15.6863 11.4631V14.0784H19.2405L18.637 17.8338H15.6863V27.2893C15.6447 27.2969 15.6031 27.3043 15.5615 27.3114L15.6173 27.3571C21.988 26.2171 26.8164 20.7181 26.8164 14.0791C26.8164 6.70244 20.781 0.666992 13.4043 0.666992C6.02764 0.666992 -0.0078125 6.70244 -0.0078125 14.0791Z" fill="#F37500"/>
</svg>
