<svg width="18" height="24" viewBox="0 0 18 24" fill="none" xmlns="http://www.w3.org/2000/svg">
<rect x="0.461914" y="8.70093" width="17.1527" height="14.9301" rx="1.787" fill="#289800"/>
<path fill-rule="evenodd" clip-rule="evenodd" d="M5.28409 11.2461V5.88989H5.29826C5.29281 5.8073 5.29004 5.72397 5.29004 5.63999C5.29004 3.57669 6.96268 1.90405 9.02598 1.90405C11.0893 1.90405 12.7619 3.57669 12.7619 5.63999C12.7619 5.71669 12.7596 5.79285 12.7551 5.86841H12.7354V11.2462H14.581V5.88989H14.5944C14.5981 5.80707 14.5999 5.72378 14.5999 5.64006C14.5999 2.56006 12.1031 0.0632324 9.02311 0.0632324C5.94312 0.0632324 3.44629 2.56006 3.44629 5.64006C3.44629 5.71653 3.44783 5.79264 3.45088 5.86837H3.43848V11.2461H5.28409Z" fill="#289800"/>
</svg>
