<svg width="31" height="35" viewBox="0 0 31 35" fill="none" xmlns="http://www.w3.org/2000/svg">
<path d="M6.82373 6.67986C6.54127 6.67941 6.26169 6.6231 6.00108 6.51418C5.74048 6.40525 5.50399 6.24586 5.30523 6.04517C5.10647 5.84448 4.94936 5.60647 4.84295 5.34482C4.73655 5.08317 4.68294 4.80307 4.68522 4.52062C4.68522 2.42933 6.82373 2.96827 6.82373 0.202148C7.62639 0.202148 8.96338 2.19325 8.96338 3.98052C8.96338 5.76895 8.01102 6.67986 6.82373 6.67986ZM15.3789 6.67986C15.0965 6.67941 14.8169 6.6231 14.5563 6.51418C14.2957 6.40525 14.0592 6.24586 13.8604 6.04517C13.6616 5.84448 13.5045 5.60647 13.3981 5.34482C13.2917 5.08317 13.2381 4.80307 13.2404 4.52062C13.2404 2.42933 15.3789 2.96827 15.3789 0.202148C16.1804 0.202148 17.5174 2.19325 17.5174 3.98052C17.5174 5.76895 16.565 6.67986 15.3789 6.67986ZM23.9341 6.67986C23.6514 6.67971 23.3716 6.62363 23.1107 6.51484C22.8499 6.40605 22.6131 6.2467 22.4141 6.04599C22.2151 5.84527 22.0578 5.60715 21.9512 5.34535C21.8447 5.08356 21.791 4.80326 21.7933 4.52062C21.7933 2.42933 23.9329 2.96827 23.9329 0.202148C24.7344 0.202148 26.0714 2.19325 26.0714 3.98052C26.0714 5.76895 25.1191 6.67986 23.9329 6.67986H23.9341ZM27.1413 17.476H25.0028V7.7589H22.8643V17.476H16.4487V7.7589H14.3079V17.476H7.89355V7.7589H5.75505V17.476H3.61654C1.84539 17.476 0.408203 18.927 0.408203 20.7155V34.7499H30.3496V20.7143C30.3496 18.927 28.9124 17.476 27.1413 17.476ZM28.2111 32.5907H2.54671V27.7298C3.63266 27.0895 4.14627 26.113 5.40381 26.113C7.27169 26.113 7.4928 28.2722 10.3994 28.2722C13.2634 28.2722 13.5548 26.113 15.3789 26.113C17.2606 26.113 17.4633 28.2722 20.3745 28.2722C23.2719 28.2722 23.4999 26.113 25.3701 26.113C26.6058 26.113 27.124 27.0895 28.2111 27.7298V32.5907ZM28.2111 25.0086C27.5674 24.4766 26.7935 23.9537 25.3701 23.9537C22.4681 23.9537 22.2412 26.113 20.3745 26.113C18.5239 26.113 18.2729 23.9537 15.3789 23.9537C12.516 23.9537 12.2235 26.113 10.3994 26.113C8.51887 26.113 8.31504 23.9537 5.40381 23.9537C3.97008 23.9537 3.19275 24.4789 2.54786 25.0098V20.7143C2.54786 20.1201 3.02692 19.6353 3.61654 19.6353H27.1413C27.7309 19.6353 28.2111 20.1189 28.2111 20.7155V25.0086Z" fill="#222222"/>
</svg>
