<svg width="36" height="34" viewBox="0 0 36 34" fill="none" xmlns="http://www.w3.org/2000/svg">
<path d="M34.618 5.12087H30.2127L29.7194 4.13643C29.3857 3.46331 28.5 2.91823 27.7493 2.91823H22.9564L21.0791 1.041C20.9252 0.887627 20.7293 0.783203 20.5162 0.740854C20.3031 0.698505 20.0822 0.720123 19.8813 0.802989C19.6804 0.885854 19.5085 1.02627 19.3872 1.20657C19.2659 1.38688 19.2006 1.59902 19.1996 1.81632V13.9314H11.4897C10.193 13.9313 8.92514 14.3147 7.8457 15.0333H5.98374C5.10751 15.0327 4.26735 14.6843 3.64776 14.0648C3.02818 13.4452 2.67982 12.605 2.6792 11.7288C2.6792 11.4367 2.56317 11.1566 2.35663 10.95C2.15009 10.7435 1.86997 10.6275 1.57788 10.6275C1.28579 10.6275 1.00567 10.7435 0.799131 10.95C0.592594 11.1566 0.476563 11.4367 0.476562 11.7288C0.479546 13.1568 1.03762 14.5278 2.03284 15.552C3.02807 16.5761 4.38248 17.1733 5.80988 17.2172C5.20902 18.2216 4.88854 19.3689 4.88184 20.5393V31.5525C4.88184 32.7695 5.86862 33.7551 7.08447 33.7551H11.4897C12.7068 33.7551 13.6924 32.7684 13.6924 31.5525V24.9446H20.3003V31.5525C20.3003 32.7695 21.2871 33.7551 22.5029 33.7551H26.9082C28.1252 33.7551 29.1108 32.7684 29.1108 31.5525V15.0333H31.3135C32.4818 15.0333 33.6023 14.5692 34.4285 13.743C35.2546 12.9169 35.7188 11.7964 35.7188 10.628V6.22277C35.7189 6.07802 35.6905 5.93467 35.6352 5.80091C35.5799 5.66715 35.4987 5.54561 35.3964 5.44326C35.294 5.34091 35.1725 5.25975 35.0387 5.20443C34.9049 5.14911 34.7628 5.12071 34.618 5.12087ZM26.9082 31.5525H22.5029V22.742H11.4897V31.5525H7.08447V20.5393C7.08572 19.3714 7.55024 18.2516 8.37612 17.4257C9.202 16.5998 10.3218 16.1353 11.4897 16.134H19.6166L26.9082 17.9572V31.5525ZM33.5161 10.628C33.5161 11.8439 32.5293 12.8307 31.3135 12.8307H26.9082V15.6876L21.401 14.3109V4.47828L22.0448 5.12087H27.7493L28.8512 7.3235H33.5161V10.628ZM26.9082 7.3235C26.9082 7.61559 26.7922 7.89572 26.5856 8.10225C26.3791 8.30879 26.099 8.42482 25.8069 8.42482C25.5148 8.42482 25.2347 8.30879 25.0281 8.10225C24.8216 7.89572 24.7056 7.61559 24.7056 7.3235C24.7056 7.03142 24.8216 6.75129 25.0281 6.54475C25.2347 6.33822 25.5148 6.22219 25.8069 6.22219C26.099 6.22219 26.3791 6.33822 26.5856 6.54475C26.7922 6.75129 26.9082 7.03142 26.9082 7.3235Z" fill="black"/>
</svg>
