<svg xmlns="http://www.w3.org/2000/svg" version="1.1" xmlns:xlink="http://www.w3.org/1999/xlink" xmlns:svgjs="http://svgjs.com/svgjs" width="24" height="24" x="0" y="0" viewBox="0 0 32 32" style="enable-background:new 0 0 24 24" xml:space="preserve" class=""><g><path d="M3 8h15.142c.447 1.72 1.999 3 3.858 3s3.411-1.28 3.858-3H29a1 1 0 1 0 0-2h-3.142C25.411 4.28 23.859 3 22 3s-3.411 1.28-3.858 3H3a1 1 0 1 0 0 2zm19-3c1.103 0 2 .897 2 2s-.897 2-2 2-2-.897-2-2 .897-2 2-2zM29 15H13.858c-.447-1.72-1.999-3-3.858-3s-3.411 1.28-3.858 3H3a1 1 0 1 0 0 2h3.142c.447 1.72 1.999 3 3.858 3s3.411-1.28 3.858-3H29a1 1 0 1 0 0-2zm-19 3c-1.103 0-2-.897-2-2s.897-2 2-2 2 .897 2 2-.897 2-2 2zM29 24h-3.142c-.447-1.72-1.999-3-3.858-3s-3.411 1.28-3.858 3H3a1 1 0 1 0 0 2h15.142c.447 1.72 1.999 3 3.858 3s3.411-1.28 3.858-3H29a1 1 0 1 0 0-2zm-7 3c-1.103 0-2-.897-2-2s.897-2 2-2 2 .897 2 2-.897 2-2 2z" fill="#000000" data-original="#000000" class=""></path></g></svg>