<svg width="21" height="21" viewBox="0 0 21 21" fill="none" xmlns="http://www.w3.org/2000/svg">
<g clip-path="url(#clip0_119_7248)">
<path d="M12.6719 3.46289C12.6719 2.35832 11.7765 1.46289 10.6719 1.46289C9.56728 1.46289 8.67188 2.35832 8.67188 3.46289M12.6719 3.46289C12.6719 4.56746 11.7765 5.46289 10.6719 5.46289C9.56728 5.46289 8.67188 4.56746 8.67188 3.46289M12.6719 3.46289H18.6719H12.6719ZM8.67188 3.46289H2.67188H8.67188ZM14.6719 10.4629C14.6719 11.5675 15.5673 12.4629 16.6719 12.4629C17.7765 12.4629 18.6719 11.5675 18.6719 10.4629C18.6719 9.35829 17.7765 8.46289 16.6719 8.46289C15.5673 8.46289 14.6719 9.35829 14.6719 10.4629ZM14.6719 10.4629H2.67188H14.6719ZM6.67188 17.4629C6.67188 16.3583 5.77644 15.4629 4.67188 15.4629C3.5673 15.4629 2.67188 16.3583 2.67188 17.4629C2.67188 18.5675 3.5673 19.4629 4.67188 19.4629C5.77644 19.4629 6.67188 18.5675 6.67188 17.4629ZM6.67188 17.4629H18.6719H6.67188Z" fill="black"/>
<path d="M12.6719 3.46289C12.6719 2.35832 11.7765 1.46289 10.6719 1.46289C9.56728 1.46289 8.67188 2.35832 8.67188 3.46289M12.6719 3.46289C12.6719 4.56746 11.7765 5.46289 10.6719 5.46289C9.56728 5.46289 8.67188 4.56746 8.67188 3.46289M12.6719 3.46289H18.6719M8.67188 3.46289H2.67188M14.6719 10.4629C14.6719 11.5675 15.5673 12.4629 16.6719 12.4629C17.7765 12.4629 18.6719 11.5675 18.6719 10.4629C18.6719 9.35829 17.7765 8.46289 16.6719 8.46289C15.5673 8.46289 14.6719 9.35829 14.6719 10.4629ZM14.6719 10.4629H2.67188M6.67188 17.4629C6.67188 16.3583 5.77645 15.4629 4.67188 15.4629C3.5673 15.4629 2.67188 16.3583 2.67188 17.4629C2.67188 18.5675 3.5673 19.4629 4.67188 19.4629C5.77645 19.4629 6.67188 18.5675 6.67188 17.4629ZM6.67188 17.4629H18.6719" stroke="#222222" stroke-width="1.5" stroke-linecap="round"/>
</g>
<defs>
<clipPath id="clip0_119_7248">
<rect width="20" height="20" fill="white" transform="translate(0.671875 0.462891)"/>
</clipPath>
</defs>
</svg>
