<svg width="33" height="30" viewBox="0 0 33 30" fill="none" xmlns="http://www.w3.org/2000/svg">
<path d="M32.2371 14.2277L28.9711 11.3574V3.3604C28.9714 3.2428 28.9485 3.12629 28.9037 3.01753C28.859 2.90878 28.7932 2.80992 28.7102 2.7266C28.6272 2.64328 28.5286 2.57714 28.42 2.53196C28.3114 2.48678 28.195 2.46345 28.0774 2.4633H22.72C22.6025 2.4636 22.4862 2.48704 22.3778 2.53229C22.2693 2.57754 22.1709 2.6437 22.088 2.727C22.0051 2.81031 21.9395 2.90912 21.8948 3.0178C21.8501 3.12648 21.8272 3.24289 21.8275 3.3604V5.08233L17.0575 0.895095C16.8951 0.752476 16.6863 0.673828 16.4702 0.673828C16.254 0.673828 16.0452 0.752476 15.8828 0.895095L0.703226 14.2277C0.52496 14.3848 0.416093 14.606 0.400402 14.8431C0.384712 15.0802 0.463472 15.3138 0.619481 15.4931C0.696428 15.5816 0.790123 15.6541 0.895179 15.7063C1.00023 15.7586 1.11458 15.7895 1.23164 15.7974C1.34869 15.8053 1.46616 15.79 1.57727 15.7523C1.68838 15.7146 1.79096 15.6554 1.87909 15.5779L3.96927 13.739V26.6644C3.96866 27.3759 4.25035 28.0587 4.75254 28.5628C5.25472 29.0669 5.93639 29.3512 6.64795 29.3534H26.2924C27.004 29.3512 27.6856 29.0669 28.1878 28.5628C28.69 28.0587 28.9717 27.3759 28.9711 26.6644V13.739L31.0612 15.5757C31.2403 15.7228 31.4696 15.7943 31.7005 15.775C31.9315 15.7557 32.1458 15.6472 32.2979 15.4724C32.4507 15.2974 32.5298 15.0699 32.5185 14.8378C32.5071 14.6057 32.4063 14.387 32.2371 14.2277ZM27.1849 26.6644C27.1852 26.9015 27.0914 27.129 26.924 27.297C26.7567 27.465 26.5295 27.5597 26.2924 27.5603H6.64795C6.41083 27.5597 6.18365 27.465 6.0163 27.297C5.84896 27.129 5.75513 26.9015 5.75544 26.6644V12.1708L16.4702 2.75927L27.1849 12.1708V26.6644ZM27.1849 9.78924L23.6137 6.65053V4.25635H27.1849V9.78809V9.78924ZM12.0053 12.9211V18.8968C12.0088 19.7204 12.673 20.3881 13.4932 20.3904H19.4448C19.8402 20.3889 20.2189 20.2309 20.4981 19.951C20.7773 19.6712 20.9344 19.2921 20.935 18.8968V12.9199C20.9341 12.5246 20.7767 12.1456 20.4973 11.866C20.2178 11.5863 19.839 11.4286 19.4437 11.4274H13.4932C13.0982 11.4292 12.7199 11.5874 12.4411 11.8673C12.1623 12.1471 12.0056 12.526 12.0053 12.9211ZM13.7915 13.2193H19.1489V18.5973H13.7915V13.2193Z" fill="#222222" stroke="black" stroke-width="0.573594"/>
</svg>
