<svg width="24" height="33" viewBox="0 0 24 33" fill="none" xmlns="http://www.w3.org/2000/svg">
<path d="M12.3916 6.28528C9.29402 6.28528 6.77393 8.9312 6.77393 12.1838C6.77393 15.4365 9.29402 18.0824 12.3916 18.0824C15.4892 18.0824 18.0093 15.4365 18.0093 12.1838C18.0093 8.9312 15.4892 6.28528 12.3916 6.28528ZM12.3916 16.1162C10.3265 16.1162 8.64686 14.3523 8.64686 12.1838C8.64686 10.0154 10.3265 8.25146 12.3916 8.25146C14.4567 8.25146 16.1363 10.0154 16.1363 12.1838C16.1363 14.3523 14.4567 16.1162 12.3916 16.1162ZM12.3916 0.386719C6.18632 0.386719 1.15625 5.66846 1.15625 12.1838C1.15625 16.9409 2.73482 18.2689 11.2366 31.2109C11.36 31.4056 11.5305 31.5659 11.7325 31.677C11.9344 31.7881 12.1611 31.8464 12.3916 31.8464C12.6221 31.8464 12.8488 31.7881 13.0507 31.677C13.2527 31.5659 13.4232 31.4056 13.5466 31.2109C22.0484 18.2678 23.627 16.9409 23.627 12.1838C23.627 5.66846 18.5969 0.386719 12.3916 0.386719ZM12.3916 29.5065C4.24035 17.1296 3.02918 16.1465 3.02918 12.1838C3.02918 9.55814 4.00217 7.08861 5.77061 5.23253C7.53905 3.37532 9.89061 2.35291 12.3916 2.35291C14.8926 2.35291 17.2441 3.37532 19.0126 5.23253C20.781 7.08861 21.754 9.55814 21.754 12.1838C21.754 16.1465 20.544 17.1274 12.3916 29.5065Z" fill="#222222" stroke="black" stroke-width="0.561768"/>
</svg>
