<svg width="29" height="25" viewBox="0 0 29 25" fill="none" xmlns="http://www.w3.org/2000/svg">
<path d="M14.4502 10.4242C10.2154 10.4242 4.21191 16.8363 4.21191 20.8838C4.21191 22.7072 5.64137 23.7963 8.03713 23.7963C10.6416 23.7963 12.3616 22.4858 14.4502 22.4858C16.5564 22.4858 18.2822 23.7963 20.8633 23.7963C23.259 23.7963 24.6885 22.7072 24.6885 20.8838C24.6885 16.8372 18.6849 10.4242 14.4502 10.4242ZM20.8633 22.1251C19.7809 22.1251 18.8468 21.8228 17.8581 21.5039C16.8089 21.1656 15.7236 20.8155 14.4502 20.8155C13.1894 20.8155 12.112 21.1636 11.0696 21.501C10.075 21.8218 9.13701 22.1251 8.03713 22.1251C5.91829 22.1251 5.91829 21.1909 5.91829 20.8838C5.91829 17.5978 11.2617 12.0954 14.4502 12.0954C17.6387 12.0954 22.9821 17.5988 22.9821 20.8838C22.9821 21.1909 22.9821 22.1251 20.8633 22.1251ZM26.1189 7.14791C25.9304 7.10368 25.7373 7.08143 25.5436 7.0816C24.1649 7.0816 22.79 8.17856 22.3035 9.76598C21.7496 11.5757 22.5579 13.3377 24.1112 13.7004C24.3024 13.7462 24.4954 13.7677 24.6875 13.7677C26.0663 13.7677 27.4401 12.6707 27.9267 11.0833C28.4815 9.2726 27.6722 7.51064 26.1189 7.14791ZM26.2925 10.6026C26.0048 11.5367 25.2511 12.0954 24.6875 12.0954C24.6272 12.0959 24.5669 12.0893 24.5081 12.0759C24.3102 12.0291 24.1493 11.9024 24.0293 11.6966C23.809 11.3212 23.7758 10.7801 23.9387 10.2467C24.2243 9.3116 24.9791 8.75288 25.5436 8.75288C25.6051 8.75288 25.6655 8.75971 25.723 8.77238C25.92 8.81919 26.0819 8.9479 26.2018 9.15266C26.4212 9.52709 26.4553 10.0692 26.2925 10.6026ZM17.7859 8.67975C17.9751 8.7285 18.1672 8.75191 18.3602 8.75191C19.8443 8.75191 21.3576 7.35072 21.9163 5.34402C22.5482 3.076 21.7223 0.892803 20.0735 0.466695C19.8855 0.418256 19.6922 0.394009 19.4982 0.39454C18.0141 0.39454 16.5008 1.79572 15.9421 3.8034C15.3112 6.07143 16.1371 8.25462 17.7859 8.67975ZM17.588 4.24316C17.9839 2.82248 18.9531 2.06679 19.4991 2.06679C19.5479 2.06679 19.5937 2.07264 19.6386 2.08337C19.858 2.1409 20.0179 2.34469 20.1125 2.50655C20.3835 2.96581 20.5668 3.83753 20.2704 4.90524C19.8745 6.32495 18.9063 7.0816 18.3593 7.0816C18.3122 7.08161 18.2654 7.07572 18.2198 7.06405C18.0004 7.0075 17.8396 6.80371 17.745 6.64184C17.4749 6.18161 17.2906 5.31087 17.588 4.24316ZM10.5401 8.75288C10.7332 8.75288 10.9253 8.72948 11.1145 8.68073C12.7643 8.25559 13.5892 6.0724 12.9574 3.80438C12.4006 1.79572 10.8873 0.39454 9.40223 0.39454C9.21014 0.39454 9.01805 0.417941 8.82889 0.466695C7.17906 0.891828 6.35317 3.07502 6.98502 5.34304C7.54374 7.35072 9.05706 8.75191 10.5411 8.75191L10.5401 8.75288ZM8.78696 2.50655C8.88154 2.34469 9.04243 2.1409 9.26182 2.08337C9.30742 2.07199 9.35427 2.06642 9.40126 2.06679C9.9473 2.06679 10.9155 2.82248 11.3124 4.24414C11.6088 5.31087 11.4255 6.18258 11.1544 6.64184C11.0589 6.80371 10.8999 7.0075 10.6796 7.06405C10.634 7.07576 10.5872 7.08166 10.5401 7.0816C9.9941 7.0816 9.02585 6.32495 8.629 4.90426C8.33257 3.83753 8.51589 2.96679 8.78696 2.50655ZM4.78915 13.7004C6.34245 13.3377 7.15176 11.5747 6.59694 9.76598C6.1094 8.17856 4.73552 7.0816 3.35774 7.0816C3.16373 7.08132 2.97035 7.10357 2.78147 7.14791C1.22818 7.51064 0.418866 9.27357 0.973684 11.0833C1.46025 12.6707 2.8351 13.7677 4.21288 13.7677C4.40595 13.7677 4.59804 13.7462 4.78915 13.7004ZM2.60791 10.6016C2.44507 10.0683 2.4792 9.52612 2.69859 9.15169C2.8195 8.94692 2.98136 8.81919 3.17833 8.77336C3.23586 8.75971 3.29534 8.75288 3.35774 8.75288C3.92134 8.75288 4.67604 9.3116 4.96174 10.2457C5.12555 10.7791 5.09143 11.3212 4.87106 11.6966C4.75112 11.9014 4.59024 12.0291 4.39327 12.075C4.33382 12.0888 4.27295 12.0957 4.21191 12.0954C3.64831 12.0954 2.89458 11.5367 2.60791 10.6016Z" fill="#222222" stroke="black" stroke-width="0.487537"/>
</svg>
