<svg width="131" height="116" viewBox="0 0 131 116" fill="none" xmlns="http://www.w3.org/2000/svg">
<path opacity="0.4" fill-rule="evenodd" clip-rule="evenodd" d="M40.8831 0.724609L60.8192 13.0256L59.6891 14.7641C47.9208 32.8692 41.3294 46.5796 39.5813 56.034L60.372 68.7199V69.8567C60.372 78.4891 58.2746 86.9706 54.1225 95.2822C50.2839 103.436 46.2764 109.901 42.0724 114.599L41.4686 115.274H40.563C26.9174 115.274 15.8364 111.611 7.55084 104.082C2.38761 99.4569 0.125 91.3554 0.125 80.5268C0.125 57.9524 13.5816 31.7491 39.7539 2.00785L40.8831 0.724609ZM8.90813 102.579C16.7329 109.692 27.2845 113.249 40.563 113.249C44.594 108.744 48.5064 102.46 52.3002 94.3981C56.3312 86.3362 58.3466 78.1557 58.3466 69.8567L37.3619 57.0524C38.7418 47.3935 45.2517 33.4967 56.8918 15.362C57.2532 14.7989 57.6196 14.2317 57.991 13.6604L41.2743 3.34585C15.1917 32.9852 2.15034 58.7122 2.15034 80.5268C2.15034 91.197 4.40294 98.5476 8.90813 102.579ZM110.239 0.724609L130.175 13.0256L129.045 14.7641C117.277 32.8692 110.686 46.5796 108.938 56.034L129.728 68.7199V69.8567C129.728 78.489 127.631 86.9705 123.479 95.282C119.64 103.436 115.633 109.901 111.429 114.599L110.825 115.274H109.919C96.2736 115.274 85.1925 111.611 76.907 104.082C71.7438 99.4569 69.4812 91.3554 69.4812 80.5268C69.4812 57.9524 82.9378 31.7491 109.11 2.00785L110.239 0.724609ZM78.2643 102.579C86.0891 109.692 96.6407 113.249 109.919 113.249C113.95 108.744 117.863 102.46 121.656 94.3981C125.687 86.3362 127.703 78.1557 127.703 69.8567L106.718 57.0524C108.098 47.3935 114.608 33.4967 126.248 15.362C126.609 14.7989 126.976 14.2317 127.347 13.6604L110.631 3.34585C84.5479 32.9852 71.5065 58.7122 71.5065 80.5268C71.5065 91.197 73.7591 98.5476 78.2643 102.579Z" fill="white"/>
</svg>
