<svg width="33" height="33" viewBox="0 0 33 33" fill="none" xmlns="http://www.w3.org/2000/svg">
<path d="M30.8485 20.4788H12.8944V2.52246C12.8944 1.42071 11.9997 0.52832 10.8991 0.52832H2.91911C1.81621 0.52832 0.923828 1.42071 0.923828 2.5236V30.453C0.923828 31.5547 1.81621 32.4482 2.91911 32.4482H30.8485C31.9502 32.4482 32.8438 31.5559 32.8438 30.453V22.473C32.8438 21.3712 31.9514 20.4788 30.8485 20.4788ZM2.91911 2.52246H10.8991V6.51188H7.40735C7.27505 6.51188 7.14818 6.56443 7.05463 6.65798C6.96108 6.75152 6.90853 6.8784 6.90853 7.0107V8.00834C6.90853 8.28292 7.13162 8.50716 7.40735 8.50716H10.9002V11.5001H7.40735C7.27505 11.5001 7.14818 11.5526 7.05463 11.6462C6.96108 11.7397 6.90853 11.8666 6.90853 11.9989V12.9954C6.90853 13.2711 7.13162 13.4942 7.40735 13.4942H10.9002V16.4871H7.40735C7.27505 16.4871 7.14818 16.5397 7.05463 16.6332C6.96108 16.7268 6.90853 16.8537 6.90853 16.986V17.9836C6.90853 18.2582 7.13162 18.4824 7.40735 18.4824H10.9002V21.0623L2.92025 29.0423V2.5236L2.91911 2.52246ZM30.8485 30.4518H4.32862L12.3086 22.4718H14.8885V25.9636C14.8885 26.2382 15.1116 26.4624 15.3873 26.4624H16.385C16.6595 26.4624 16.8838 26.2393 16.8838 25.9636V22.4718H19.8767V25.9636C19.8767 26.2382 20.0998 26.4624 20.3755 26.4624H21.372C21.6478 26.4624 21.8708 26.2393 21.8708 25.9636V22.4718H24.8638V25.9636C24.8638 26.2382 25.0869 26.4624 25.3626 26.4624H26.3602C26.6348 26.4624 26.8591 26.2393 26.8591 25.9636V22.4718H30.8485V30.4518Z" fill="#222222"/>
</svg>
