<svg width="33" height="30" viewBox="0 0 33 30" fill="none" xmlns="http://www.w3.org/2000/svg">
<path d="M16.5059 12.2397C16.5059 7.90879 13.0083 4.39559 8.69629 4.39559C4.38429 4.39559 0.886719 7.9099 0.886719 12.2397C0.886719 16.2762 3.92353 19.6053 7.82831 20.0359V23.5714H5.00794C4.83532 23.5723 4.67006 23.6414 4.54821 23.7637C4.42636 23.886 4.35781 24.0515 4.35752 24.2241V24.6603C4.35752 25.0196 4.65093 25.3141 5.00794 25.3141H7.82831V28.1478C7.82831 28.506 8.12173 28.8005 8.47985 28.8005H8.91273C9.27085 28.8005 9.56427 28.506 9.56427 28.1467V25.3141H12.3846C12.7416 25.3141 13.0351 25.0196 13.0351 24.6603V24.2252C13.0354 24.0522 12.9671 23.8861 12.8452 23.7634C12.7232 23.6406 12.5576 23.5712 12.3846 23.5703H9.56427V20.0359C13.4691 19.6053 16.5059 16.2762 16.5059 12.2397ZM2.62267 12.2397C2.62267 8.86825 5.33371 6.13824 8.69629 6.13824C12.0533 6.13824 14.7699 8.86267 14.7699 12.2409C14.7699 15.6124 12.0589 18.3413 8.69629 18.3413C5.33929 18.3413 2.62267 15.6179 2.62267 12.2397ZM32.125 1.56295V6.35691C32.125 6.52973 32.0566 6.69551 31.9347 6.81802C31.8128 6.94053 31.6474 7.0098 31.4746 7.01068H31.0395C30.8667 7.0098 30.7012 6.94053 30.5793 6.81802C30.4575 6.69551 30.389 6.52973 30.389 6.35691V3.88351L26.9461 7.34203C28.0539 8.73387 28.6558 10.4609 28.6531 12.2397C28.6531 16.5707 25.1555 20.0839 20.8435 20.0839C19.0878 20.0845 17.3834 19.4916 16.0072 18.4015C16.3809 17.9552 16.7123 17.4755 17.0001 16.969C18.0811 17.8592 19.4387 18.3445 20.8391 18.3413C24.2016 18.3413 26.9127 15.6124 26.9127 12.2397C26.9127 8.86267 24.1961 6.13824 20.8391 6.13824C19.4382 6.13503 18.0801 6.62074 16.999 7.51161C16.7133 7.00423 16.3809 6.52465 16.006 6.07911C17.3892 4.98269 19.1039 4.38883 20.8689 4.39491C22.6339 4.40099 24.3445 5.00666 25.72 6.11258L29.1641 2.65295H26.7018C26.529 2.65206 26.3636 2.58279 26.2417 2.46028C26.1198 2.33777 26.0514 2.17199 26.0514 1.99917V1.56295C26.0514 1.20371 26.3437 0.90918 26.7018 0.90918H31.4746C31.8316 0.90918 32.125 1.20371 32.125 1.56295Z" fill="#222222" stroke="black" stroke-width="0.949101"/>
</svg>
