<svg width="18" height="21" viewBox="0 0 18 21" fill="none" xmlns="http://www.w3.org/2000/svg">
<g clip-path="url(#clip0_119_7256)">
<path d="M12.7337 3.02238C13.2557 2.99838 13.6997 3.48078 13.6997 3.98838V16.8104L14.0093 16.466L15.5357 14.7572C15.8981 14.3564 16.5365 14.42 16.9037 14.7572C17.3045 15.1244 17.2409 15.7484 16.9037 16.1252C16.7585 16.2896 16.6133 16.4492 16.4681 16.6124L13.4153 20.0288C13.0817 20.4008 12.3809 20.4008 12.0473 20.0288L11.6129 19.5404L8.55893 16.1252C8.20253 15.7196 8.19172 15.1592 8.55893 14.7572C8.89732 14.3852 9.58853 14.3804 9.92693 14.7572C10.0709 14.9216 10.2161 15.0812 10.3613 15.2456L11.7665 16.8176V3.98958C11.7665 3.49278 12.1409 3.11358 12.6053 3.03558L12.7337 3.02238ZM6.02332 0.742379L6.23933 0.985979L6.45772 1.22958L9.51173 4.64598C9.87413 5.05158 9.88373 5.60598 9.51173 6.01398C9.17333 6.38598 8.48213 6.38958 8.14373 6.01398C7.99973 5.84838 7.85453 5.68998 7.70933 5.52438L6.30772 3.95718V16.7828C6.30772 17.324 5.86372 17.726 5.34172 17.75C4.86052 17.7716 4.44412 17.3624 4.38292 16.8992L4.37572 16.7828L4.37452 3.95478L4.06252 4.30638L2.53372 6.01278C2.17612 6.41838 1.53772 6.35118 1.16572 6.01278C0.798524 5.67678 0.821324 5.12478 1.08772 4.74438L1.16572 4.64598L1.60132 4.15758L4.65532 0.742379C4.98892 0.370379 5.68972 0.370379 6.02332 0.742379Z" fill="black"/>
</g>
<defs>
<clipPath id="clip0_119_7256">
<rect width="17" height="20" fill="white" transform="translate(0.888672 0.462891)"/>
</clipPath>
</defs>
</svg>
